<mxfile host="app.diagrams.net" modified="2023-07-02T18:19:48.885Z" agent="Mozilla/5.0 (Windows NT 10.0; Win64; x64) AppleWebKit/537.36 (KHTML, like Gecko) Chrome/114.0.0.0 Safari/537.36" etag="YFg1UE1MTBjk-89ynXcP" version="21.5.2" type="github">
  <diagram name="Trang-1" id="nojyRJPFIsxJEEEbbdvT">
    <mxGraphModel dx="2053" dy="772" grid="1" gridSize="10" guides="1" tooltips="1" connect="1" arrows="1" fold="1" page="1" pageScale="1" pageWidth="1654" pageHeight="1169" math="0" shadow="0">
      <root>
        <mxCell id="0" />
        <mxCell id="1" parent="0" />
        <mxCell id="HrSDxB48Nyxn9lgQYwO5-2" value="&lt;b&gt;CUNG CẤP NGUYÊN LIỆU&lt;/b&gt;" style="rounded=0;whiteSpace=wrap;html=1;labelBackgroundColor=none;fillColor=#B2C9AB;strokeColor=#788AA3;fontColor=#46495D;" vertex="1" parent="1">
          <mxGeometry x="680" y="290" width="120" height="60" as="geometry" />
        </mxCell>
        <mxCell id="HrSDxB48Nyxn9lgQYwO5-3" value="&lt;b&gt;NGƯỜI SỬ DỤNG&lt;/b&gt;" style="rounded=0;whiteSpace=wrap;html=1;labelBackgroundColor=none;fillColor=#B2C9AB;strokeColor=#788AA3;fontColor=#46495D;" vertex="1" parent="1">
          <mxGeometry x="390" y="90" width="120" height="60" as="geometry" />
        </mxCell>
        <mxCell id="HrSDxB48Nyxn9lgQYwO5-4" value="&lt;b&gt;NHÓM QUẢN LÝ&lt;/b&gt;" style="rounded=0;whiteSpace=wrap;html=1;labelBackgroundColor=none;fillColor=#B2C9AB;strokeColor=#788AA3;fontColor=#46495D;" vertex="1" parent="1">
          <mxGeometry x="340" y="480" width="120" height="60" as="geometry" />
        </mxCell>
        <mxCell id="HrSDxB48Nyxn9lgQYwO5-5" value="&lt;b&gt;PERFECT FOOD&lt;/b&gt;" style="ellipse;whiteSpace=wrap;html=1;labelBackgroundColor=none;fillColor=#B2C9AB;strokeColor=#788AA3;fontColor=#46495D;" vertex="1" parent="1">
          <mxGeometry x="390" y="280" width="120" height="80" as="geometry" />
        </mxCell>
        <mxCell id="HrSDxB48Nyxn9lgQYwO5-6" value="" style="endArrow=classic;html=1;rounded=0;exitX=0.5;exitY=0;exitDx=0;exitDy=0;entryX=0.5;entryY=1;entryDx=0;entryDy=0;labelBackgroundColor=none;strokeColor=#788AA3;fontColor=default;" edge="1" parent="1" source="HrSDxB48Nyxn9lgQYwO5-5" target="HrSDxB48Nyxn9lgQYwO5-3">
          <mxGeometry width="50" height="50" relative="1" as="geometry">
            <mxPoint x="310" y="310" as="sourcePoint" />
            <mxPoint x="360" y="260" as="targetPoint" />
          </mxGeometry>
        </mxCell>
        <mxCell id="HrSDxB48Nyxn9lgQYwO5-7" value="thông tin người dùng" style="text;html=1;strokeColor=none;fillColor=none;align=center;verticalAlign=middle;whiteSpace=wrap;rounded=0;labelBackgroundColor=none;fontColor=#46495D;" vertex="1" parent="1">
          <mxGeometry x="340" y="260" width="90" height="30" as="geometry" />
        </mxCell>
        <mxCell id="HrSDxB48Nyxn9lgQYwO5-8" value="" style="endArrow=classic;html=1;rounded=0;exitX=0;exitY=0.5;exitDx=0;exitDy=0;entryX=0;entryY=0;entryDx=0;entryDy=0;labelBackgroundColor=none;strokeColor=#788AA3;fontColor=default;" edge="1" parent="1" source="HrSDxB48Nyxn9lgQYwO5-3" target="HrSDxB48Nyxn9lgQYwO5-5">
          <mxGeometry width="50" height="50" relative="1" as="geometry">
            <mxPoint x="250" y="260" as="sourcePoint" />
            <mxPoint x="300" y="210" as="targetPoint" />
            <Array as="points">
              <mxPoint x="340" y="120" />
              <mxPoint x="340" y="290" />
            </Array>
          </mxGeometry>
        </mxCell>
        <mxCell id="HrSDxB48Nyxn9lgQYwO5-9" value="công thức nấu ăn" style="text;html=1;strokeColor=none;fillColor=none;align=center;verticalAlign=middle;whiteSpace=wrap;rounded=0;labelBackgroundColor=none;fontColor=#46495D;" vertex="1" parent="1">
          <mxGeometry x="450" y="160" width="80" height="30" as="geometry" />
        </mxCell>
        <mxCell id="HrSDxB48Nyxn9lgQYwO5-11" value="" style="endArrow=classic;html=1;rounded=0;exitX=1;exitY=0.5;exitDx=0;exitDy=0;entryX=0;entryY=0.5;entryDx=0;entryDy=0;labelBackgroundColor=none;strokeColor=#788AA3;fontColor=default;" edge="1" parent="1" source="HrSDxB48Nyxn9lgQYwO5-5" target="HrSDxB48Nyxn9lgQYwO5-2">
          <mxGeometry width="50" height="50" relative="1" as="geometry">
            <mxPoint x="540" y="340" as="sourcePoint" />
            <mxPoint x="590" y="290" as="targetPoint" />
          </mxGeometry>
        </mxCell>
        <mxCell id="HrSDxB48Nyxn9lgQYwO5-12" value="thông tin đơn hàng" style="text;html=1;strokeColor=none;fillColor=none;align=center;verticalAlign=middle;whiteSpace=wrap;rounded=0;labelBackgroundColor=none;fontColor=#46495D;" vertex="1" parent="1">
          <mxGeometry x="620" y="290" width="60" height="30" as="geometry" />
        </mxCell>
        <mxCell id="HrSDxB48Nyxn9lgQYwO5-13" value="" style="endArrow=classic;html=1;rounded=0;exitX=0.5;exitY=1;exitDx=0;exitDy=0;entryX=1;entryY=1;entryDx=0;entryDy=0;labelBackgroundColor=none;strokeColor=#788AA3;fontColor=default;" edge="1" parent="1" source="HrSDxB48Nyxn9lgQYwO5-2" target="HrSDxB48Nyxn9lgQYwO5-5">
          <mxGeometry width="50" height="50" relative="1" as="geometry">
            <mxPoint x="680" y="460" as="sourcePoint" />
            <mxPoint x="730" y="410" as="targetPoint" />
            <Array as="points">
              <mxPoint x="740" y="390" />
              <mxPoint x="492" y="390" />
            </Array>
          </mxGeometry>
        </mxCell>
        <mxCell id="HrSDxB48Nyxn9lgQYwO5-14" value="chương trình khuyến mãi" style="text;html=1;strokeColor=none;fillColor=none;align=center;verticalAlign=middle;whiteSpace=wrap;rounded=0;labelBackgroundColor=none;fontColor=#46495D;" vertex="1" parent="1">
          <mxGeometry x="490" y="360" width="110" height="30" as="geometry" />
        </mxCell>
        <mxCell id="HrSDxB48Nyxn9lgQYwO5-17" value="" style="endArrow=classic;html=1;rounded=0;exitX=0;exitY=0.5;exitDx=0;exitDy=0;entryX=0;entryY=1;entryDx=0;entryDy=0;labelBackgroundColor=none;strokeColor=#788AA3;fontColor=default;" edge="1" parent="1" source="HrSDxB48Nyxn9lgQYwO5-4" target="HrSDxB48Nyxn9lgQYwO5-5">
          <mxGeometry width="50" height="50" relative="1" as="geometry">
            <mxPoint x="300" y="540" as="sourcePoint" />
            <mxPoint x="350" y="490" as="targetPoint" />
            <Array as="points">
              <mxPoint x="300" y="510" />
              <mxPoint x="300" y="348" />
            </Array>
          </mxGeometry>
        </mxCell>
        <mxCell id="HrSDxB48Nyxn9lgQYwO5-18" value="đăng công thức sau khi kiểm duyệt" style="text;html=1;strokeColor=none;fillColor=none;align=center;verticalAlign=middle;whiteSpace=wrap;rounded=0;labelBackgroundColor=none;fontColor=#46495D;" vertex="1" parent="1">
          <mxGeometry x="270" y="320" width="120" height="30" as="geometry" />
        </mxCell>
        <mxCell id="HrSDxB48Nyxn9lgQYwO5-19" value="&lt;b&gt;TRANG CÁ NHÂN NGƯỜI SỬ DỤNG&lt;/b&gt;" style="rounded=0;whiteSpace=wrap;html=1;labelBackgroundColor=none;fillColor=#B2C9AB;strokeColor=#788AA3;fontColor=#46495D;" vertex="1" parent="1">
          <mxGeometry x="100" y="300" width="120" height="60" as="geometry" />
        </mxCell>
        <mxCell id="HrSDxB48Nyxn9lgQYwO5-20" value="" style="endArrow=classic;html=1;rounded=0;exitX=0.5;exitY=0;exitDx=0;exitDy=0;entryX=0.5;entryY=0;entryDx=0;entryDy=0;labelBackgroundColor=none;strokeColor=#788AA3;fontColor=default;" edge="1" parent="1" source="HrSDxB48Nyxn9lgQYwO5-3" target="HrSDxB48Nyxn9lgQYwO5-19">
          <mxGeometry width="50" height="50" relative="1" as="geometry">
            <mxPoint x="170" y="130" as="sourcePoint" />
            <mxPoint x="220" y="80" as="targetPoint" />
            <Array as="points">
              <mxPoint x="450" y="50" />
              <mxPoint x="160" y="50" />
            </Array>
          </mxGeometry>
        </mxCell>
        <mxCell id="HrSDxB48Nyxn9lgQYwO5-21" value="đăng công thức cá nhân" style="text;html=1;strokeColor=none;fillColor=none;align=center;verticalAlign=middle;whiteSpace=wrap;rounded=0;labelBackgroundColor=none;fontColor=#46495D;" vertex="1" parent="1">
          <mxGeometry x="160" y="260" width="100" height="30" as="geometry" />
        </mxCell>
        <mxCell id="HrSDxB48Nyxn9lgQYwO5-22" value="" style="endArrow=classic;html=1;rounded=0;exitX=0.75;exitY=1;exitDx=0;exitDy=0;entryX=0.5;entryY=1;entryDx=0;entryDy=0;labelBackgroundColor=none;strokeColor=#788AA3;fontColor=default;" edge="1" parent="1" source="HrSDxB48Nyxn9lgQYwO5-19" target="HrSDxB48Nyxn9lgQYwO5-4">
          <mxGeometry width="50" height="50" relative="1" as="geometry">
            <mxPoint x="100" y="490" as="sourcePoint" />
            <mxPoint x="150" y="440" as="targetPoint" />
            <Array as="points">
              <mxPoint x="190" y="600" />
              <mxPoint x="400" y="600" />
            </Array>
          </mxGeometry>
        </mxCell>
        <mxCell id="HrSDxB48Nyxn9lgQYwO5-23" value="công thức cá nhân của khách hàng" style="text;html=1;strokeColor=none;fillColor=none;align=center;verticalAlign=middle;whiteSpace=wrap;rounded=0;labelBackgroundColor=none;fontColor=#46495D;" vertex="1" parent="1">
          <mxGeometry x="270" y="570" width="130" height="30" as="geometry" />
        </mxCell>
        <mxCell id="HrSDxB48Nyxn9lgQYwO5-24" value="" style="endArrow=classic;html=1;rounded=0;exitX=0.75;exitY=1;exitDx=0;exitDy=0;entryX=0.25;entryY=1;entryDx=0;entryDy=0;labelBackgroundColor=none;strokeColor=#788AA3;fontColor=default;" edge="1" parent="1" source="HrSDxB48Nyxn9lgQYwO5-4" target="HrSDxB48Nyxn9lgQYwO5-19">
          <mxGeometry width="50" height="50" relative="1" as="geometry">
            <mxPoint x="410" y="680" as="sourcePoint" />
            <mxPoint x="460" y="630" as="targetPoint" />
            <Array as="points">
              <mxPoint x="430" y="680" />
              <mxPoint x="130" y="680" />
            </Array>
          </mxGeometry>
        </mxCell>
        <mxCell id="HrSDxB48Nyxn9lgQYwO5-25" value="thông báo về tình trạng của bài đăng" style="text;html=1;strokeColor=none;fillColor=none;align=center;verticalAlign=middle;whiteSpace=wrap;rounded=0;labelBackgroundColor=none;fontColor=#46495D;" vertex="1" parent="1">
          <mxGeometry y="370" width="130" height="30" as="geometry" />
        </mxCell>
        <mxCell id="HrSDxB48Nyxn9lgQYwO5-28" value="" style="endArrow=classic;html=1;rounded=0;exitX=1;exitY=0.5;exitDx=0;exitDy=0;entryX=0.5;entryY=0;entryDx=0;entryDy=0;labelBackgroundColor=none;strokeColor=#788AA3;fontColor=default;" edge="1" parent="1" source="HrSDxB48Nyxn9lgQYwO5-3" target="HrSDxB48Nyxn9lgQYwO5-2">
          <mxGeometry width="50" height="50" relative="1" as="geometry">
            <mxPoint x="630" y="190" as="sourcePoint" />
            <mxPoint x="680" y="140" as="targetPoint" />
            <Array as="points">
              <mxPoint x="570" y="170" />
              <mxPoint x="570" y="250" />
              <mxPoint x="740" y="250" />
            </Array>
          </mxGeometry>
        </mxCell>
        <mxCell id="HrSDxB48Nyxn9lgQYwO5-29" value="đặt mua nguyên liệu" style="text;html=1;strokeColor=none;fillColor=none;align=center;verticalAlign=middle;whiteSpace=wrap;rounded=0;labelBackgroundColor=none;fontColor=#46495D;" vertex="1" parent="1">
          <mxGeometry x="740" y="260" width="110" height="30" as="geometry" />
        </mxCell>
        <mxCell id="HrSDxB48Nyxn9lgQYwO5-30" value="&lt;b&gt;ĐƠN VỊ VẬN CHUYỂN&lt;/b&gt;" style="rounded=0;whiteSpace=wrap;html=1;labelBackgroundColor=none;fillColor=#B2C9AB;strokeColor=#788AA3;fontColor=#46495D;" vertex="1" parent="1">
          <mxGeometry x="920" y="200" width="120" height="60" as="geometry" />
        </mxCell>
        <mxCell id="HrSDxB48Nyxn9lgQYwO5-31" value="" style="endArrow=classic;html=1;rounded=0;exitX=1;exitY=0.5;exitDx=0;exitDy=0;entryX=0.5;entryY=1;entryDx=0;entryDy=0;labelBackgroundColor=none;strokeColor=#788AA3;fontColor=default;" edge="1" parent="1" source="HrSDxB48Nyxn9lgQYwO5-2" target="HrSDxB48Nyxn9lgQYwO5-30">
          <mxGeometry width="50" height="50" relative="1" as="geometry">
            <mxPoint x="880" y="350" as="sourcePoint" />
            <mxPoint x="930" y="300" as="targetPoint" />
            <Array as="points">
              <mxPoint x="980" y="320" />
            </Array>
          </mxGeometry>
        </mxCell>
        <mxCell id="HrSDxB48Nyxn9lgQYwO5-32" value="" style="endArrow=classic;html=1;rounded=0;exitX=0.75;exitY=0;exitDx=0;exitDy=0;entryX=0;entryY=0.5;entryDx=0;entryDy=0;startArrow=classic;labelBackgroundColor=none;strokeColor=#788AA3;fontColor=default;" edge="1" parent="1" source="HrSDxB48Nyxn9lgQYwO5-3" target="HrSDxB48Nyxn9lgQYwO5-33">
          <mxGeometry width="50" height="50" relative="1" as="geometry">
            <mxPoint x="640" y="70" as="sourcePoint" />
            <mxPoint x="510" as="targetPoint" />
            <Array as="points">
              <mxPoint x="480" y="60" />
            </Array>
          </mxGeometry>
        </mxCell>
        <mxCell id="HrSDxB48Nyxn9lgQYwO5-33" value="&lt;b&gt;MOMO/NGÂN HÀNG&lt;/b&gt;" style="rounded=0;whiteSpace=wrap;html=1;labelBackgroundColor=none;fillColor=#B2C9AB;strokeColor=#788AA3;fontColor=#46495D;" vertex="1" parent="1">
          <mxGeometry x="760" y="30" width="120" height="60" as="geometry" />
        </mxCell>
        <mxCell id="HrSDxB48Nyxn9lgQYwO5-34" value="" style="endArrow=classic;html=1;rounded=0;exitX=1;exitY=0.5;exitDx=0;exitDy=0;entryX=0.5;entryY=1;entryDx=0;entryDy=0;startArrow=classic;labelBackgroundColor=none;strokeColor=#788AA3;fontColor=default;" edge="1" parent="1" source="HrSDxB48Nyxn9lgQYwO5-33" target="HrSDxB48Nyxn9lgQYwO5-5">
          <mxGeometry width="50" height="50" relative="1" as="geometry">
            <mxPoint x="940" y="100" as="sourcePoint" />
            <mxPoint x="990" y="50" as="targetPoint" />
            <Array as="points">
              <mxPoint x="1120" y="60" />
              <mxPoint x="1120" y="440" />
              <mxPoint x="750" y="440" />
              <mxPoint x="450" y="440" />
            </Array>
          </mxGeometry>
        </mxCell>
        <mxCell id="HrSDxB48Nyxn9lgQYwO5-35" value="chuyển tiền" style="text;html=1;strokeColor=none;fillColor=none;align=center;verticalAlign=middle;whiteSpace=wrap;rounded=0;labelBackgroundColor=none;fontColor=#46495D;" vertex="1" parent="1">
          <mxGeometry x="425" y="410" width="130" height="30" as="geometry" />
        </mxCell>
        <mxCell id="HrSDxB48Nyxn9lgQYwO5-36" value="thanh toán hóa đơn" style="text;html=1;strokeColor=none;fillColor=none;align=center;verticalAlign=middle;whiteSpace=wrap;rounded=0;labelBackgroundColor=none;fontColor=#46495D;" vertex="1" parent="1">
          <mxGeometry x="650" y="30" width="100" height="30" as="geometry" />
        </mxCell>
        <mxCell id="HrSDxB48Nyxn9lgQYwO5-37" value="" style="endArrow=classic;html=1;rounded=0;exitX=0.5;exitY=0;exitDx=0;exitDy=0;entryX=1;entryY=0;entryDx=0;entryDy=0;labelBackgroundColor=none;strokeColor=#788AA3;fontColor=default;" edge="1" parent="1" source="HrSDxB48Nyxn9lgQYwO5-30" target="HrSDxB48Nyxn9lgQYwO5-3">
          <mxGeometry width="50" height="50" relative="1" as="geometry">
            <mxPoint x="840" y="180" as="sourcePoint" />
            <mxPoint x="890" y="130" as="targetPoint" />
            <Array as="points">
              <mxPoint x="980" y="180" />
              <mxPoint x="980" y="160" />
              <mxPoint x="640" y="90" />
            </Array>
          </mxGeometry>
        </mxCell>
        <mxCell id="HrSDxB48Nyxn9lgQYwO5-39" value="vận chuyển đơn hàng" style="text;html=1;strokeColor=none;fillColor=none;align=center;verticalAlign=middle;whiteSpace=wrap;rounded=0;labelBackgroundColor=none;fontColor=#46495D;" vertex="1" parent="1">
          <mxGeometry x="510" y="100" width="80" height="30" as="geometry" />
        </mxCell>
        <mxCell id="HrSDxB48Nyxn9lgQYwO5-40" value="thông tin khách hàng" style="text;html=1;strokeColor=none;fillColor=none;align=center;verticalAlign=middle;whiteSpace=wrap;rounded=0;labelBackgroundColor=none;fontColor=#46495D;" vertex="1" parent="1">
          <mxGeometry x="880" y="30" width="110" height="30" as="geometry" />
        </mxCell>
        <mxCell id="HrSDxB48Nyxn9lgQYwO5-41" value="chương trình khuyến mãi" style="text;html=1;strokeColor=none;fillColor=none;align=center;verticalAlign=middle;whiteSpace=wrap;rounded=0;labelBackgroundColor=none;fontColor=#46495D;" vertex="1" parent="1">
          <mxGeometry x="470" y="30" width="100" height="30" as="geometry" />
        </mxCell>
        <mxCell id="HrSDxB48Nyxn9lgQYwO5-42" value="" style="endArrow=classic;html=1;rounded=0;exitX=1;exitY=0.5;exitDx=0;exitDy=0;entryX=0.229;entryY=0.964;entryDx=0;entryDy=0;entryPerimeter=0;startArrow=classic;labelBackgroundColor=none;strokeColor=#788AA3;fontColor=default;" edge="1" parent="1" source="HrSDxB48Nyxn9lgQYwO5-30" target="HrSDxB48Nyxn9lgQYwO5-5">
          <mxGeometry width="50" height="50" relative="1" as="geometry">
            <mxPoint x="1100" y="240" as="sourcePoint" />
            <mxPoint x="1150" y="190" as="targetPoint" />
            <Array as="points">
              <mxPoint x="1340" y="230" />
              <mxPoint x="1340" y="460" />
              <mxPoint x="417" y="460" />
            </Array>
          </mxGeometry>
        </mxCell>
        <mxCell id="HrSDxB48Nyxn9lgQYwO5-43" value="chương trình khuyến mãi" style="text;html=1;strokeColor=none;fillColor=none;align=center;verticalAlign=middle;whiteSpace=wrap;rounded=0;labelBackgroundColor=none;fontColor=#46495D;" vertex="1" parent="1">
          <mxGeometry x="335" y="360" width="90" height="30" as="geometry" />
        </mxCell>
        <mxCell id="HrSDxB48Nyxn9lgQYwO5-45" value="thông tin khách hàng" style="text;html=1;strokeColor=none;fillColor=none;align=center;verticalAlign=middle;whiteSpace=wrap;rounded=0;labelBackgroundColor=none;fontColor=#46495D;" vertex="1" parent="1">
          <mxGeometry x="1140" y="200" width="120" height="30" as="geometry" />
        </mxCell>
      </root>
    </mxGraphModel>
  </diagram>
</mxfile>
